<svg width="37" height="37" viewBox="0 0 37 37" fill="none" xmlns="http://www.w3.org/2000/svg">
<path fill-rule="evenodd" clip-rule="evenodd" d="M29.4432 16.4005C23.4799 12.8591 13.6436 12.5335 7.95087 14.2612C7.03651 14.5387 6.0698 14.0226 5.79299 13.1085C5.51597 12.1937 6.03136 11.2277 6.94616 10.9497C13.4812 8.96617 24.3444 9.34924 31.2094 13.4244C32.0319 13.9126 32.3014 14.9746 31.8141 15.7955C31.3263 16.6177 30.2635 16.8888 29.4432 16.4005ZM29.248 21.6459C28.8295 22.3248 27.9419 22.5378 27.2639 22.1209C22.2925 19.065 14.7112 18.1796 8.82944 19.965C8.06685 20.1954 7.26118 19.7655 7.02944 19.004C6.79969 18.2414 7.22981 17.4373 7.9913 17.2054C14.7104 15.1663 23.0633 16.1538 28.7734 19.663C29.4514 20.0805 29.6648 20.9686 29.248 21.6459ZM26.9843 26.6834C26.6518 27.2286 25.942 27.3993 25.3988 27.0671C21.0545 24.4119 15.5865 23.8124 9.14689 25.2832C8.52635 25.4255 7.90779 25.0367 7.76641 24.4164C7.62414 23.7958 8.01162 23.1773 8.63349 23.0356C15.6806 21.4248 21.7254 22.118 26.6016 25.0976C27.1453 25.4297 27.3165 26.1399 26.9843 26.6834ZM18.4999 0C8.2829 0 0 8.28268 0 18.4997C0 28.7178 8.2829 37 18.4999 37C28.7173 37 37 28.7178 37 18.4997C37 8.28268 28.7173 0 18.4999 0Z" fill="white"/>
</svg>
